solid OpenSCAD_Model
  facet normal 0 0.06540312923014352 -0.9978589232386035
    outer loop
      vertex -0.5 -14.2 -0.9999999999999999
      vertex 24.5 -14.069473807779948 -0.9914448613738103
      vertex 24.5 -14.2 -0.9999999999999999
    endloop
  endfacet
  facet normal 0 0.06540312923014352 -0.9978589232386035
    outer loop
      vertex 24.5 -14.069473807779948 -0.9914448613738103
      vertex -0.5 -14.2 -0.9999999999999999
      vertex -0.5 -14.069473807779948 -0.9914448613738103
    endloop
  endfacet
  facet normal 0 0.19509032201612853 -0.9807852804032304
    outer loop
      vertex -0.5 -14.069473807779948 -0.9914448613738103
      vertex 24.5 -13.94118095489748 -0.9659258262890682
      vertex 24.5 -14.069473807779948 -0.9914448613738103
    endloop
  endfacet
  facet normal 0 0.19509032201612853 -0.9807852804032304
    outer loop
      vertex 24.5 -13.94118095489748 -0.9659258262890682
      vertex -0.5 -14.069473807779948 -0.9914448613738103
      vertex -0.5 -13.94118095489748 -0.9659258262890682
    endloop
  endfacet
  facet normal 0 0.32143946530316014 -0.9469301294951061
    outer loop
      vertex -0.5 -13.94118095489748 -0.9659258262890682
      vertex 24.5 -13.81731656763491 -0.9238795325112866
      vertex 24.5 -13.94118095489748 -0.9659258262890682
    endloop
  endfacet
  facet normal 0 0.32143946530316014 -0.9469301294951061
    outer loop
      vertex 24.5 -13.81731656763491 -0.9238795325112866
      vertex -0.5 -13.94118095489748 -0.9659258262890682
      vertex -0.5 -13.81731656763491 -0.9238795325112866
    endloop
  endfacet
  facet normal 0 0.442288690219001 -0.8968727415326885
    outer loop
      vertex -0.5 -13.81731656763491 -0.9238795325112866
      vertex 24.5 -13.7 -0.8660254037844385
      vertex 24.5 -13.81731656763491 -0.9238795325112866
    endloop
  endfacet
  facet normal 0 0.442288690219001 -0.8968727415326885
    outer loop
      vertex 24.5 -13.7 -0.8660254037844385
      vertex -0.5 -13.81731656763491 -0.9238795325112866
      vertex -0.5 -13.7 -0.8660254037844385
    endloop
  endfacet
  facet normal 0 0.5555702330195995 -0.831469612302547
    outer loop
      vertex -0.5 -13.7 -0.8660254037844385
      vertex 24.5 -13.591238570991278 -0.793353340291235
      vertex 24.5 -13.7 -0.8660254037844385
    endloop
  endfacet
  facet normal 0 0.5555702330195995 -0.831469612302547
    outer loop
      vertex 24.5 -13.591238570991278 -0.793353340291235
      vertex -0.5 -13.7 -0.8660254037844385
      vertex -0.5 -13.591238570991278 -0.793353340291235
    endloop
  endfacet
  facet normal 0 0.6593458151000698 -0.7518398074789766
    outer loop
      vertex -0.5 -13.591238570991278 -0.793353340291235
      vertex 24.5 -13.492893218813451 -0.7071067811865475
      vertex 24.5 -13.591238570991278 -0.793353340291235
    endloop
  endfacet
  facet normal 0 0.6593458151000698 -0.7518398074789766
    outer loop
      vertex 24.5 -13.492893218813451 -0.7071067811865475
      vertex -0.5 -13.591238570991278 -0.793353340291235
      vertex -0.5 -13.492893218813451 -0.7071067811865475
    endloop
  endfacet
  facet normal 0 0.7518398074789798 -0.6593458151000661
    outer loop
      vertex 24.5 -13.492893218813451 -0.7071067811865475
      vertex -0.5 -13.406646659708764 -0.6087614290087205
      vertex 24.5 -13.406646659708764 -0.6087614290087205
    endloop
  endfacet
  facet normal 0 0.7518398074789798 -0.6593458151000661
    outer loop
      vertex -0.5 -13.406646659708764 -0.6087614290087205
      vertex 24.5 -13.492893218813451 -0.7071067811865475
      vertex -0.5 -13.492893218813451 -0.7071067811865475
    endloop
  endfacet
  facet normal 0 0.8314696123025421 -0.5555702330196068
    outer loop
      vertex 24.5 -13.406646659708764 -0.6087614290087205
      vertex -0.5 -13.33397459621556 -0.49999999999999994
      vertex 24.5 -13.33397459621556 -0.49999999999999994
    endloop
  endfacet
  facet normal 0 0.8314696123025421 -0.5555702330196068
    outer loop
      vertex -0.5 -13.33397459621556 -0.49999999999999994
      vertex 24.5 -13.406646659708764 -0.6087614290087205
      vertex -0.5 -13.406646659708764 -0.6087614290087205
    endloop
  endfacet
  facet normal 0 0.8968727415326923 -0.4422886902189933
    outer loop
      vertex 24.5 -13.33397459621556 -0.49999999999999994
      vertex -0.5 -13.276120467488713 -0.3826834323650897
      vertex 24.5 -13.276120467488713 -0.3826834323650897
    endloop
  endfacet
  facet normal 0 0.8968727415326923 -0.4422886902189933
    outer loop
      vertex -0.5 -13.276120467488713 -0.3826834323650897
      vertex 24.5 -13.33397459621556 -0.49999999999999994
      vertex -0.5 -13.33397459621556 -0.49999999999999994
    endloop
  endfacet
  facet normal 0 0.9469301294951054 -0.3214394653031626
    outer loop
      vertex 24.5 -13.276120467488713 -0.3826834323650897
      vertex -0.5 -13.234074173710932 -0.2588190451025207
      vertex 24.5 -13.234074173710932 -0.2588190451025207
    endloop
  endfacet
  facet normal 0 0.9469301294951054 -0.3214394653031626
    outer loop
      vertex -0.5 -13.234074173710932 -0.2588190451025207
      vertex 24.5 -13.276120467488713 -0.3826834323650897
      vertex -0.5 -13.276120467488713 -0.3826834323650897
    endloop
  endfacet
  facet normal 0 0.9807852804032289 -0.1950903220161361
    outer loop
      vertex 24.5 -13.234074173710932 -0.2588190451025207
      vertex -0.5 -13.208555138626188 -0.13052619222005155
      vertex 24.5 -13.208555138626188 -0.13052619222005155
    endloop
  endfacet
  facet normal 0 0.9807852804032289 -0.1950903220161361
    outer loop
      vertex -0.5 -13.208555138626188 -0.13052619222005155
      vertex 24.5 -13.234074173710932 -0.2588190451025207
      vertex -0.5 -13.234074173710932 -0.2588190451025207
    endloop
  endfacet
  facet normal 0 0.9978589232386037 -0.06540312923013909
    outer loop
      vertex 24.5 -13.208555138626188 -0.13052619222005155
      vertex -0.5 -13.2 0
      vertex 24.5 -13.2 0
    endloop
  endfacet
  facet normal 0 0.9978589232386037 -0.06540312923013909
    outer loop
      vertex -0.5 -13.2 0
      vertex 24.5 -13.208555138626188 -0.13052619222005155
      vertex -0.5 -13.208555138626188 -0.13052619222005155
    endloop
  endfacet
  facet normal 0 0.9978589232386037 0.06540312923013909
    outer loop
      vertex 24.5 -13.2 0
      vertex -0.5 -13.208555138626188 0.13052619222005155
      vertex 24.5 -13.208555138626188 0.13052619222005155
    endloop
  endfacet
  facet normal 0 0.9978589232386037 0.06540312923013909
    outer loop
      vertex -0.5 -13.208555138626188 0.13052619222005155
      vertex 24.5 -13.2 0
      vertex -0.5 -13.2 0
    endloop
  endfacet
  facet normal 0 0.9807852804032289 0.1950903220161361
    outer loop
      vertex 24.5 -13.208555138626188 0.13052619222005155
      vertex -0.5 -13.234074173710932 0.2588190451025207
      vertex 24.5 -13.234074173710932 0.2588190451025207
    endloop
  endfacet
  facet normal 0 0.9807852804032289 0.1950903220161361
    outer loop
      vertex -0.5 -13.234074173710932 0.2588190451025207
      vertex 24.5 -13.208555138626188 0.13052619222005155
      vertex -0.5 -13.208555138626188 0.13052619222005155
    endloop
  endfacet
  facet normal 0 0.9469301294951054 0.3214394653031626
    outer loop
      vertex 24.5 -13.234074173710932 0.2588190451025207
      vertex -0.5 -13.276120467488713 0.3826834323650897
      vertex 24.5 -13.276120467488713 0.3826834323650897
    endloop
  endfacet
  facet normal 0 0.9469301294951054 0.3214394653031626
    outer loop
      vertex -0.5 -13.276120467488713 0.3826834323650897
      vertex 24.5 -13.234074173710932 0.2588190451025207
      vertex -0.5 -13.234074173710932 0.2588190451025207
    endloop
  endfacet
  facet normal 0 0.8968727415326923 0.4422886902189933
    outer loop
      vertex 24.5 -13.276120467488713 0.3826834323650897
      vertex -0.5 -13.33397459621556 0.49999999999999994
      vertex 24.5 -13.33397459621556 0.49999999999999994
    endloop
  endfacet
  facet normal 0 0.8968727415326923 0.4422886902189933
    outer loop
      vertex -0.5 -13.33397459621556 0.49999999999999994
      vertex 24.5 -13.276120467488713 0.3826834323650897
      vertex -0.5 -13.276120467488713 0.3826834323650897
    endloop
  endfacet
  facet normal 0 0.8314696123025421 0.5555702330196068
    outer loop
      vertex 24.5 -13.33397459621556 0.49999999999999994
      vertex -0.5 -13.406646659708764 0.6087614290087205
      vertex 24.5 -13.406646659708764 0.6087614290087205
    endloop
  endfacet
  facet normal 0 0.8314696123025421 0.5555702330196068
    outer loop
      vertex -0.5 -13.406646659708764 0.6087614290087205
      vertex 24.5 -13.33397459621556 0.49999999999999994
      vertex -0.5 -13.33397459621556 0.49999999999999994
    endloop
  endfacet
  facet normal 0 0.7518398074789798 0.6593458151000661
    outer loop
      vertex 24.5 -13.406646659708764 0.6087614290087205
      vertex -0.5 -13.492893218813451 0.7071067811865475
      vertex 24.5 -13.492893218813451 0.7071067811865475
    endloop
  endfacet
  facet normal 0 0.7518398074789798 0.6593458151000661
    outer loop
      vertex -0.5 -13.492893218813451 0.7071067811865475
      vertex 24.5 -13.406646659708764 0.6087614290087205
      vertex -0.5 -13.406646659708764 0.6087614290087205
    endloop
  endfacet
  facet normal 0 0.6593458151000698 0.7518398074789766
    outer loop
      vertex -0.5 -13.492893218813451 0.7071067811865475
      vertex 24.5 -13.591238570991278 0.793353340291235
      vertex 24.5 -13.492893218813451 0.7071067811865475
    endloop
  endfacet
  facet normal 0 0.6593458151000698 0.7518398074789766
    outer loop
      vertex 24.5 -13.591238570991278 0.793353340291235
      vertex -0.5 -13.492893218813451 0.7071067811865475
      vertex -0.5 -13.591238570991278 0.793353340291235
    endloop
  endfacet
  facet normal 0 0.5555702330195995 0.831469612302547
    outer loop
      vertex -0.5 -13.591238570991278 0.793353340291235
      vertex 24.5 -13.7 0.8660254037844385
      vertex 24.5 -13.591238570991278 0.793353340291235
    endloop
  endfacet
  facet normal 0 0.5555702330195995 0.831469612302547
    outer loop
      vertex 24.5 -13.7 0.8660254037844385
      vertex -0.5 -13.591238570991278 0.793353340291235
      vertex -0.5 -13.7 0.8660254037844385
    endloop
  endfacet
  facet normal 0 0.442288690219001 0.8968727415326885
    outer loop
      vertex -0.5 -13.7 0.8660254037844385
      vertex 24.5 -13.81731656763491 0.9238795325112866
      vertex 24.5 -13.7 0.8660254037844385
    endloop
  endfacet
  facet normal 0 0.442288690219001 0.8968727415326885
    outer loop
      vertex 24.5 -13.81731656763491 0.9238795325112866
      vertex -0.5 -13.7 0.8660254037844385
      vertex -0.5 -13.81731656763491 0.9238795325112866
    endloop
  endfacet
  facet normal 0 0.32143946530316014 0.9469301294951061
    outer loop
      vertex -0.5 -13.81731656763491 0.9238795325112866
      vertex 24.5 -13.94118095489748 0.9659258262890682
      vertex 24.5 -13.81731656763491 0.9238795325112866
    endloop
  endfacet
  facet normal 0 0.32143946530316014 0.9469301294951061
    outer loop
      vertex 24.5 -13.94118095489748 0.9659258262890682
      vertex -0.5 -13.81731656763491 0.9238795325112866
      vertex -0.5 -13.94118095489748 0.9659258262890682
    endloop
  endfacet
  facet normal 0 0.19509032201612853 0.9807852804032304
    outer loop
      vertex -0.5 -13.94118095489748 0.9659258262890682
      vertex 24.5 -14.069473807779948 0.9914448613738103
      vertex 24.5 -13.94118095489748 0.9659258262890682
    endloop
  endfacet
  facet normal 0 0.19509032201612853 0.9807852804032304
    outer loop
      vertex 24.5 -14.069473807779948 0.9914448613738103
      vertex -0.5 -13.94118095489748 0.9659258262890682
      vertex -0.5 -14.069473807779948 0.9914448613738103
    endloop
  endfacet
  facet normal 0 0.06540312923014352 0.9978589232386035
    outer loop
      vertex -0.5 -14.069473807779948 0.9914448613738103
      vertex 24.5 -14.2 0.9999999999999999
      vertex 24.5 -14.069473807779948 0.9914448613738103
    endloop
  endfacet
  facet normal 0 0.06540312923014352 0.9978589232386035
    outer loop
      vertex 24.5 -14.2 0.9999999999999999
      vertex -0.5 -14.069473807779948 0.9914448613738103
      vertex -0.5 -14.2 0.9999999999999999
    endloop
  endfacet
  facet normal 0 -0.06540312923014352 0.9978589232386035
    outer loop
      vertex -0.5 -14.2 0.9999999999999999
      vertex 24.5 -14.33052619222005 0.9914448613738103
      vertex 24.5 -14.2 0.9999999999999999
    endloop
  endfacet
  facet normal 0 -0.06540312923014352 0.9978589232386035
    outer loop
      vertex 24.5 -14.33052619222005 0.9914448613738103
      vertex -0.5 -14.2 0.9999999999999999
      vertex -0.5 -14.33052619222005 0.9914448613738103
    endloop
  endfacet
  facet normal 0 -0.19509032201612853 0.9807852804032304
    outer loop
      vertex -0.5 -14.33052619222005 0.9914448613738103
      vertex 24.5 -14.45881904510252 0.9659258262890682
      vertex 24.5 -14.33052619222005 0.9914448613738103
    endloop
  endfacet
  facet normal 0 -0.19509032201612853 0.9807852804032304
    outer loop
      vertex 24.5 -14.45881904510252 0.9659258262890682
      vertex -0.5 -14.33052619222005 0.9914448613738103
      vertex -0.5 -14.45881904510252 0.9659258262890682
    endloop
  endfacet
  facet normal 0 -0.32143946530316014 0.9469301294951061
    outer loop
      vertex -0.5 -14.45881904510252 0.9659258262890682
      vertex 24.5 -14.582683432365089 0.9238795325112866
      vertex 24.5 -14.45881904510252 0.9659258262890682
    endloop
  endfacet
  facet normal 0 -0.32143946530316014 0.9469301294951061
    outer loop
      vertex 24.5 -14.582683432365089 0.9238795325112866
      vertex -0.5 -14.45881904510252 0.9659258262890682
      vertex -0.5 -14.582683432365089 0.9238795325112866
    endloop
  endfacet
  facet normal 0 -0.442288690219001 0.8968727415326885
    outer loop
      vertex -0.5 -14.582683432365089 0.9238795325112866
      vertex 24.5 -14.7 0.8660254037844385
      vertex 24.5 -14.582683432365089 0.9238795325112866
    endloop
  endfacet
  facet normal 0 -0.442288690219001 0.8968727415326885
    outer loop
      vertex 24.5 -14.7 0.8660254037844385
      vertex -0.5 -14.582683432365089 0.9238795325112866
      vertex -0.5 -14.7 0.8660254037844385
    endloop
  endfacet
  facet normal 0 -0.5555702330195995 0.831469612302547
    outer loop
      vertex -0.5 -14.7 0.8660254037844385
      vertex 24.5 -14.80876142900872 0.793353340291235
      vertex 24.5 -14.7 0.8660254037844385
    endloop
  endfacet
  facet normal 0 -0.5555702330195995 0.831469612302547
    outer loop
      vertex 24.5 -14.80876142900872 0.793353340291235
      vertex -0.5 -14.7 0.8660254037844385
      vertex -0.5 -14.80876142900872 0.793353340291235
    endloop
  endfacet
  facet normal 0 -0.6593458151000698 0.7518398074789766
    outer loop
      vertex -0.5 -14.80876142900872 0.793353340291235
      vertex 24.5 -14.907106781186547 0.7071067811865475
      vertex 24.5 -14.80876142900872 0.793353340291235
    endloop
  endfacet
  facet normal 0 -0.6593458151000698 0.7518398074789766
    outer loop
      vertex 24.5 -14.907106781186547 0.7071067811865475
      vertex -0.5 -14.80876142900872 0.793353340291235
      vertex -0.5 -14.907106781186547 0.7071067811865475
    endloop
  endfacet
  facet normal 0 -0.7518398074789798 0.6593458151000661
    outer loop
      vertex -0.5 -14.993353340291234 0.6087614290087205
      vertex 24.5 -14.907106781186547 0.7071067811865475
      vertex -0.5 -14.907106781186547 0.7071067811865475
    endloop
  endfacet
  facet normal 0 -0.7518398074789798 0.6593458151000661
    outer loop
      vertex 24.5 -14.907106781186547 0.7071067811865475
      vertex -0.5 -14.993353340291234 0.6087614290087205
      vertex 24.5 -14.993353340291234 0.6087614290087205
    endloop
  endfacet
  facet normal 0 -0.8314696123025421 0.5555702330196068
    outer loop
      vertex -0.5 -15.066025403784439 0.49999999999999994
      vertex 24.5 -14.993353340291234 0.6087614290087205
      vertex -0.5 -14.993353340291234 0.6087614290087205
    endloop
  endfacet
  facet normal 0 -0.8314696123025421 0.5555702330196068
    outer loop
      vertex 24.5 -14.993353340291234 0.6087614290087205
      vertex -0.5 -15.066025403784439 0.49999999999999994
      vertex 24.5 -15.066025403784439 0.49999999999999994
    endloop
  endfacet
  facet normal 0 -0.8968727415326923 0.4422886902189933
    outer loop
      vertex -0.5 -15.123879532511285 0.3826834323650897
      vertex 24.5 -15.066025403784439 0.49999999999999994
      vertex -0.5 -15.066025403784439 0.49999999999999994
    endloop
  endfacet
  facet normal 0 -0.8968727415326923 0.4422886902189933
    outer loop
      vertex 24.5 -15.066025403784439 0.49999999999999994
      vertex -0.5 -15.123879532511285 0.3826834323650897
      vertex 24.5 -15.123879532511285 0.3826834323650897
    endloop
  endfacet
  facet normal 0 -0.9469301294951054 0.3214394653031626
    outer loop
      vertex -0.5 -15.165925826289067 0.2588190451025207
      vertex 24.5 -15.123879532511285 0.3826834323650897
      vertex -0.5 -15.123879532511285 0.3826834323650897
    endloop
  endfacet
  facet normal 0 -0.9469301294951054 0.3214394653031626
    outer loop
      vertex 24.5 -15.123879532511285 0.3826834323650897
      vertex -0.5 -15.165925826289067 0.2588190451025207
      vertex 24.5 -15.165925826289067 0.2588190451025207
    endloop
  endfacet
  facet normal 0 -0.9807852804032289 0.1950903220161361
    outer loop
      vertex -0.5 -15.19144486137381 0.13052619222005155
      vertex 24.5 -15.165925826289067 0.2588190451025207
      vertex -0.5 -15.165925826289067 0.2588190451025207
    endloop
  endfacet
  facet normal 0 -0.9807852804032289 0.1950903220161361
    outer loop
      vertex 24.5 -15.165925826289067 0.2588190451025207
      vertex -0.5 -15.19144486137381 0.13052619222005155
      vertex 24.5 -15.19144486137381 0.13052619222005155
    endloop
  endfacet
  facet normal 0 -0.9978589232386037 0.06540312923013909
    outer loop
      vertex -0.5 -15.2 0
      vertex 24.5 -15.19144486137381 0.13052619222005155
      vertex -0.5 -15.19144486137381 0.13052619222005155
    endloop
  endfacet
  facet normal 0 -0.9978589232386037 0.06540312923013909
    outer loop
      vertex 24.5 -15.19144486137381 0.13052619222005155
      vertex -0.5 -15.2 0
      vertex 24.5 -15.2 0
    endloop
  endfacet
  facet normal 0 -0.9978589232386037 -0.06540312923013909
    outer loop
      vertex -0.5 -15.19144486137381 -0.13052619222005155
      vertex 24.5 -15.2 0
      vertex -0.5 -15.2 0
    endloop
  endfacet
  facet normal 0 -0.9978589232386037 -0.06540312923013909
    outer loop
      vertex 24.5 -15.2 0
      vertex -0.5 -15.19144486137381 -0.13052619222005155
      vertex 24.5 -15.19144486137381 -0.13052619222005155
    endloop
  endfacet
  facet normal 0 -0.9807852804032289 -0.1950903220161361
    outer loop
      vertex -0.5 -15.165925826289067 -0.2588190451025207
      vertex 24.5 -15.19144486137381 -0.13052619222005155
      vertex -0.5 -15.19144486137381 -0.13052619222005155
    endloop
  endfacet
  facet normal 0 -0.9807852804032289 -0.1950903220161361
    outer loop
      vertex 24.5 -15.19144486137381 -0.13052619222005155
      vertex -0.5 -15.165925826289067 -0.2588190451025207
      vertex 24.5 -15.165925826289067 -0.2588190451025207
    endloop
  endfacet
  facet normal 0 -0.9469301294951054 -0.3214394653031626
    outer loop
      vertex -0.5 -15.123879532511285 -0.3826834323650897
      vertex 24.5 -15.165925826289067 -0.2588190451025207
      vertex -0.5 -15.165925826289067 -0.2588190451025207
    endloop
  endfacet
  facet normal 0 -0.9469301294951054 -0.3214394653031626
    outer loop
      vertex 24.5 -15.165925826289067 -0.2588190451025207
      vertex -0.5 -15.123879532511285 -0.3826834323650897
      vertex 24.5 -15.123879532511285 -0.3826834323650897
    endloop
  endfacet
  facet normal 0 -0.8968727415326923 -0.4422886902189933
    outer loop
      vertex -0.5 -15.066025403784439 -0.49999999999999994
      vertex 24.5 -15.123879532511285 -0.3826834323650897
      vertex -0.5 -15.123879532511285 -0.3826834323650897
    endloop
  endfacet
  facet normal 0 -0.8968727415326923 -0.4422886902189933
    outer loop
      vertex 24.5 -15.123879532511285 -0.3826834323650897
      vertex -0.5 -15.066025403784439 -0.49999999999999994
      vertex 24.5 -15.066025403784439 -0.49999999999999994
    endloop
  endfacet
  facet normal 0 -0.8314696123025421 -0.5555702330196068
    outer loop
      vertex -0.5 -14.993353340291234 -0.6087614290087205
      vertex 24.5 -15.066025403784439 -0.49999999999999994
      vertex -0.5 -15.066025403784439 -0.49999999999999994
    endloop
  endfacet
  facet normal 0 -0.8314696123025421 -0.5555702330196068
    outer loop
      vertex 24.5 -15.066025403784439 -0.49999999999999994
      vertex -0.5 -14.993353340291234 -0.6087614290087205
      vertex 24.5 -14.993353340291234 -0.6087614290087205
    endloop
  endfacet
  facet normal 0 -0.7518398074789798 -0.6593458151000661
    outer loop
      vertex -0.5 -14.907106781186547 -0.7071067811865475
      vertex 24.5 -14.993353340291234 -0.6087614290087205
      vertex -0.5 -14.993353340291234 -0.6087614290087205
    endloop
  endfacet
  facet normal 0 -0.7518398074789798 -0.6593458151000661
    outer loop
      vertex 24.5 -14.993353340291234 -0.6087614290087205
      vertex -0.5 -14.907106781186547 -0.7071067811865475
      vertex 24.5 -14.907106781186547 -0.7071067811865475
    endloop
  endfacet
  facet normal 0 -0.6593458151000698 -0.7518398074789766
    outer loop
      vertex -0.5 -14.907106781186547 -0.7071067811865475
      vertex 24.5 -14.80876142900872 -0.793353340291235
      vertex 24.5 -14.907106781186547 -0.7071067811865475
    endloop
  endfacet
  facet normal 0 -0.6593458151000698 -0.7518398074789766
    outer loop
      vertex 24.5 -14.80876142900872 -0.793353340291235
      vertex -0.5 -14.907106781186547 -0.7071067811865475
      vertex -0.5 -14.80876142900872 -0.793353340291235
    endloop
  endfacet
  facet normal 0 -0.5555702330195995 -0.831469612302547
    outer loop
      vertex -0.5 -14.80876142900872 -0.793353340291235
      vertex 24.5 -14.7 -0.8660254037844385
      vertex 24.5 -14.80876142900872 -0.793353340291235
    endloop
  endfacet
  facet normal 0 -0.5555702330195995 -0.831469612302547
    outer loop
      vertex 24.5 -14.7 -0.8660254037844385
      vertex -0.5 -14.80876142900872 -0.793353340291235
      vertex -0.5 -14.7 -0.8660254037844385
    endloop
  endfacet
  facet normal 0 -0.442288690219001 -0.8968727415326885
    outer loop
      vertex -0.5 -14.7 -0.8660254037844385
      vertex 24.5 -14.582683432365089 -0.9238795325112866
      vertex 24.5 -14.7 -0.8660254037844385
    endloop
  endfacet
  facet normal 0 -0.442288690219001 -0.8968727415326885
    outer loop
      vertex 24.5 -14.582683432365089 -0.9238795325112866
      vertex -0.5 -14.7 -0.8660254037844385
      vertex -0.5 -14.582683432365089 -0.9238795325112866
    endloop
  endfacet
  facet normal 0 -0.32143946530316014 -0.9469301294951061
    outer loop
      vertex -0.5 -14.582683432365089 -0.9238795325112866
      vertex 24.5 -14.45881904510252 -0.9659258262890682
      vertex 24.5 -14.582683432365089 -0.9238795325112866
    endloop
  endfacet
  facet normal 0 -0.32143946530316014 -0.9469301294951061
    outer loop
      vertex 24.5 -14.45881904510252 -0.9659258262890682
      vertex -0.5 -14.582683432365089 -0.9238795325112866
      vertex -0.5 -14.45881904510252 -0.9659258262890682
    endloop
  endfacet
  facet normal 0 -0.19509032201612853 -0.9807852804032304
    outer loop
      vertex -0.5 -14.45881904510252 -0.9659258262890682
      vertex 24.5 -14.33052619222005 -0.9914448613738103
      vertex 24.5 -14.45881904510252 -0.9659258262890682
    endloop
  endfacet
  facet normal 0 -0.19509032201612853 -0.9807852804032304
    outer loop
      vertex 24.5 -14.33052619222005 -0.9914448613738103
      vertex -0.5 -14.45881904510252 -0.9659258262890682
      vertex -0.5 -14.33052619222005 -0.9914448613738103
    endloop
  endfacet
  facet normal 0 -0.06540312923014352 -0.9978589232386035
    outer loop
      vertex -0.5 -14.33052619222005 -0.9914448613738103
      vertex 24.5 -14.2 -0.9999999999999999
      vertex 24.5 -14.33052619222005 -0.9914448613738103
    endloop
  endfacet
  facet normal 0 -0.06540312923014352 -0.9978589232386035
    outer loop
      vertex 24.5 -14.2 -0.9999999999999999
      vertex -0.5 -14.33052619222005 -0.9914448613738103
      vertex -0.5 -14.2 -0.9999999999999999
    endloop
  endfacet
  facet normal -1 0 0
    outer loop
      vertex -0.5 -13.208555138626188 -0.13052619222005155
      vertex -0.5 -13.208555138626188 0.13052619222005155
      vertex -0.5 -13.2 0
    endloop
  endfacet
  facet normal -1 0 0
    outer loop
      vertex -0.5 -13.234074173710932 -0.2588190451025207
      vertex -0.5 -13.208555138626188 0.13052619222005155
      vertex -0.5 -13.208555138626188 -0.13052619222005155
    endloop
  endfacet
  facet normal -1 0 0
    outer loop
      vertex -0.5 -13.234074173710932 -0.2588190451025207
      vertex -0.5 -13.234074173710932 0.2588190451025207
      vertex -0.5 -13.208555138626188 0.13052619222005155
    endloop
  endfacet
  facet normal -1 0 0
    outer loop
      vertex -0.5 -13.276120467488713 -0.3826834323650897
      vertex -0.5 -13.234074173710932 0.2588190451025207
      vertex -0.5 -13.234074173710932 -0.2588190451025207
    endloop
  endfacet
  facet normal -1 0 0
    outer loop
      vertex -0.5 -13.276120467488713 -0.3826834323650897
      vertex -0.5 -13.276120467488713 0.3826834323650897
      vertex -0.5 -13.234074173710932 0.2588190451025207
    endloop
  endfacet
  facet normal -1 0 0
    outer loop
      vertex -0.5 -13.33397459621556 -0.49999999999999994
      vertex -0.5 -13.276120467488713 0.3826834323650897
      vertex -0.5 -13.276120467488713 -0.3826834323650897
    endloop
  endfacet
  facet normal -1 0 0
    outer loop
      vertex -0.5 -13.33397459621556 -0.49999999999999994
      vertex -0.5 -13.33397459621556 0.49999999999999994
      vertex -0.5 -13.276120467488713 0.3826834323650897
    endloop
  endfacet
  facet normal -1 0 0
    outer loop
      vertex -0.5 -13.406646659708764 -0.6087614290087205
      vertex -0.5 -13.33397459621556 0.49999999999999994
      vertex -0.5 -13.33397459621556 -0.49999999999999994
    endloop
  endfacet
  facet normal -1 0 0
    outer loop
      vertex -0.5 -13.406646659708764 -0.6087614290087205
      vertex -0.5 -13.406646659708764 0.6087614290087205
      vertex -0.5 -13.33397459621556 0.49999999999999994
    endloop
  endfacet
  facet normal -1 0 0
    outer loop
      vertex -0.5 -13.492893218813451 -0.7071067811865475
      vertex -0.5 -13.406646659708764 0.6087614290087205
      vertex -0.5 -13.406646659708764 -0.6087614290087205
    endloop
  endfacet
  facet normal -1 0 0
    outer loop
      vertex -0.5 -13.492893218813451 -0.7071067811865475
      vertex -0.5 -13.492893218813451 0.7071067811865475
      vertex -0.5 -13.406646659708764 0.6087614290087205
    endloop
  endfacet
  facet normal -1 0 0
    outer loop
      vertex -0.5 -13.591238570991278 -0.793353340291235
      vertex -0.5 -13.492893218813451 0.7071067811865475
      vertex -0.5 -13.492893218813451 -0.7071067811865475
    endloop
  endfacet
  facet normal -1 0 0
    outer loop
      vertex -0.5 -13.591238570991278 -0.793353340291235
      vertex -0.5 -13.591238570991278 0.793353340291235
      vertex -0.5 -13.492893218813451 0.7071067811865475
    endloop
  endfacet
  facet normal -1 0 0
    outer loop
      vertex -0.5 -13.7 -0.8660254037844385
      vertex -0.5 -13.591238570991278 0.793353340291235
      vertex -0.5 -13.591238570991278 -0.793353340291235
    endloop
  endfacet
  facet normal -1 0 0
    outer loop
      vertex -0.5 -13.7 -0.8660254037844385
      vertex -0.5 -13.7 0.8660254037844385
      vertex -0.5 -13.591238570991278 0.793353340291235
    endloop
  endfacet
  facet normal -1 0 0
    outer loop
      vertex -0.5 -13.81731656763491 -0.9238795325112866
      vertex -0.5 -13.7 0.8660254037844385
      vertex -0.5 -13.7 -0.8660254037844385
    endloop
  endfacet
  facet normal -1 0 0
    outer loop
      vertex -0.5 -13.81731656763491 -0.9238795325112866
      vertex -0.5 -13.81731656763491 0.9238795325112866
      vertex -0.5 -13.7 0.8660254037844385
    endloop
  endfacet
  facet normal -1 0 0
    outer loop
      vertex -0.5 -13.94118095489748 -0.9659258262890682
      vertex -0.5 -13.81731656763491 0.9238795325112866
      vertex -0.5 -13.81731656763491 -0.9238795325112866
    endloop
  endfacet
  facet normal -1 0 0
    outer loop
      vertex -0.5 -13.94118095489748 -0.9659258262890682
      vertex -0.5 -13.94118095489748 0.9659258262890682
      vertex -0.5 -13.81731656763491 0.9238795325112866
    endloop
  endfacet
  facet normal -1 0 0
    outer loop
      vertex -0.5 -14.069473807779948 -0.9914448613738103
      vertex -0.5 -13.94118095489748 0.9659258262890682
      vertex -0.5 -13.94118095489748 -0.9659258262890682
    endloop
  endfacet
  facet normal -1 0 0
    outer loop
      vertex -0.5 -14.069473807779948 -0.9914448613738103
      vertex -0.5 -14.069473807779948 0.9914448613738103
      vertex -0.5 -13.94118095489748 0.9659258262890682
    endloop
  endfacet
  facet normal -1 0 0
    outer loop
      vertex -0.5 -14.2 -0.9999999999999999
      vertex -0.5 -14.069473807779948 0.9914448613738103
      vertex -0.5 -14.069473807779948 -0.9914448613738103
    endloop
  endfacet
  facet normal -1 0 0
    outer loop
      vertex -0.5 -14.2 -0.9999999999999999
      vertex -0.5 -14.2 0.9999999999999999
      vertex -0.5 -14.069473807779948 0.9914448613738103
    endloop
  endfacet
  facet normal -1 0 0
    outer loop
      vertex -0.5 -14.33052619222005 -0.9914448613738103
      vertex -0.5 -14.2 0.9999999999999999
      vertex -0.5 -14.2 -0.9999999999999999
    endloop
  endfacet
  facet normal -1 0 0
    outer loop
      vertex -0.5 -14.33052619222005 -0.9914448613738103
      vertex -0.5 -14.33052619222005 0.9914448613738103
      vertex -0.5 -14.2 0.9999999999999999
    endloop
  endfacet
  facet normal -1 0 0
    outer loop
      vertex -0.5 -14.45881904510252 -0.9659258262890682
      vertex -0.5 -14.33052619222005 0.9914448613738103
      vertex -0.5 -14.33052619222005 -0.9914448613738103
    endloop
  endfacet
  facet normal -1 0 0
    outer loop
      vertex -0.5 -14.45881904510252 -0.9659258262890682
      vertex -0.5 -14.45881904510252 0.9659258262890682
      vertex -0.5 -14.33052619222005 0.9914448613738103
    endloop
  endfacet
  facet normal -1 0 0
    outer loop
      vertex -0.5 -14.582683432365089 -0.9238795325112866
      vertex -0.5 -14.45881904510252 0.9659258262890682
      vertex -0.5 -14.45881904510252 -0.9659258262890682
    endloop
  endfacet
  facet normal -1 0 0
    outer loop
      vertex -0.5 -14.582683432365089 -0.9238795325112866
      vertex -0.5 -14.582683432365089 0.9238795325112866
      vertex -0.5 -14.45881904510252 0.9659258262890682
    endloop
  endfacet
  facet normal -1 0 0
    outer loop
      vertex -0.5 -14.7 -0.8660254037844385
      vertex -0.5 -14.582683432365089 0.9238795325112866
      vertex -0.5 -14.582683432365089 -0.9238795325112866
    endloop
  endfacet
  facet normal -1 0 0
    outer loop
      vertex -0.5 -14.7 -0.8660254037844385
      vertex -0.5 -14.7 0.8660254037844385
      vertex -0.5 -14.582683432365089 0.9238795325112866
    endloop
  endfacet
  facet normal -1 0 0
    outer loop
      vertex -0.5 -14.80876142900872 -0.793353340291235
      vertex -0.5 -14.7 0.8660254037844385
      vertex -0.5 -14.7 -0.8660254037844385
    endloop
  endfacet
  facet normal -1 0 0
    outer loop
      vertex -0.5 -14.80876142900872 -0.793353340291235
      vertex -0.5 -14.80876142900872 0.793353340291235
      vertex -0.5 -14.7 0.8660254037844385
    endloop
  endfacet
  facet normal -1 0 0
    outer loop
      vertex -0.5 -14.907106781186547 -0.7071067811865475
      vertex -0.5 -14.80876142900872 0.793353340291235
      vertex -0.5 -14.80876142900872 -0.793353340291235
    endloop
  endfacet
  facet normal -1 0 0
    outer loop
      vertex -0.5 -14.907106781186547 -0.7071067811865475
      vertex -0.5 -14.907106781186547 0.7071067811865475
      vertex -0.5 -14.80876142900872 0.793353340291235
    endloop
  endfacet
  facet normal -1 0 0
    outer loop
      vertex -0.5 -14.993353340291234 -0.6087614290087205
      vertex -0.5 -14.907106781186547 0.7071067811865475
      vertex -0.5 -14.907106781186547 -0.7071067811865475
    endloop
  endfacet
  facet normal -1 0 0
    outer loop
      vertex -0.5 -14.993353340291234 -0.6087614290087205
      vertex -0.5 -14.993353340291234 0.6087614290087205
      vertex -0.5 -14.907106781186547 0.7071067811865475
    endloop
  endfacet
  facet normal -1 0 0
    outer loop
      vertex -0.5 -15.066025403784439 -0.49999999999999994
      vertex -0.5 -14.993353340291234 0.6087614290087205
      vertex -0.5 -14.993353340291234 -0.6087614290087205
    endloop
  endfacet
  facet normal -1 0 0
    outer loop
      vertex -0.5 -15.066025403784439 -0.49999999999999994
      vertex -0.5 -15.066025403784439 0.49999999999999994
      vertex -0.5 -14.993353340291234 0.6087614290087205
    endloop
  endfacet
  facet normal -1 0 0
    outer loop
      vertex -0.5 -15.123879532511285 -0.3826834323650897
      vertex -0.5 -15.066025403784439 0.49999999999999994
      vertex -0.5 -15.066025403784439 -0.49999999999999994
    endloop
  endfacet
  facet normal -1 0 0
    outer loop
      vertex -0.5 -15.123879532511285 -0.3826834323650897
      vertex -0.5 -15.123879532511285 0.3826834323650897
      vertex -0.5 -15.066025403784439 0.49999999999999994
    endloop
  endfacet
  facet normal -1 0 0
    outer loop
      vertex -0.5 -15.165925826289067 -0.2588190451025207
      vertex -0.5 -15.123879532511285 0.3826834323650897
      vertex -0.5 -15.123879532511285 -0.3826834323650897
    endloop
  endfacet
  facet normal -1 0 0
    outer loop
      vertex -0.5 -15.165925826289067 -0.2588190451025207
      vertex -0.5 -15.165925826289067 0.2588190451025207
      vertex -0.5 -15.123879532511285 0.3826834323650897
    endloop
  endfacet
  facet normal -1 0 0
    outer loop
      vertex -0.5 -15.19144486137381 -0.13052619222005155
      vertex -0.5 -15.165925826289067 0.2588190451025207
      vertex -0.5 -15.165925826289067 -0.2588190451025207
    endloop
  endfacet
  facet normal -1 0 0
    outer loop
      vertex -0.5 -15.19144486137381 -0.13052619222005155
      vertex -0.5 -15.19144486137381 0.13052619222005155
      vertex -0.5 -15.165925826289067 0.2588190451025207
    endloop
  endfacet
  facet normal -1 0 0
    outer loop
      vertex -0.5 -15.19144486137381 0.13052619222005155
      vertex -0.5 -15.19144486137381 -0.13052619222005155
      vertex -0.5 -15.2 0
    endloop
  endfacet
  facet normal 1 0 0
    outer loop
      vertex 24.5 -13.208555138626188 0.13052619222005155
      vertex 24.5 -13.208555138626188 -0.13052619222005155
      vertex 24.5 -13.2 0
    endloop
  endfacet
  facet normal 1 0 0
    outer loop
      vertex 24.5 -13.234074173710932 0.2588190451025207
      vertex 24.5 -13.208555138626188 -0.13052619222005155
      vertex 24.5 -13.208555138626188 0.13052619222005155
    endloop
  endfacet
  facet normal 1 0 0
    outer loop
      vertex 24.5 -13.234074173710932 0.2588190451025207
      vertex 24.5 -13.234074173710932 -0.2588190451025207
      vertex 24.5 -13.208555138626188 -0.13052619222005155
    endloop
  endfacet
  facet normal 1 0 0
    outer loop
      vertex 24.5 -13.276120467488713 0.3826834323650897
      vertex 24.5 -13.234074173710932 -0.2588190451025207
      vertex 24.5 -13.234074173710932 0.2588190451025207
    endloop
  endfacet
  facet normal 1 0 0
    outer loop
      vertex 24.5 -13.276120467488713 0.3826834323650897
      vertex 24.5 -13.276120467488713 -0.3826834323650897
      vertex 24.5 -13.234074173710932 -0.2588190451025207
    endloop
  endfacet
  facet normal 1 0 0
    outer loop
      vertex 24.5 -13.33397459621556 0.49999999999999994
      vertex 24.5 -13.276120467488713 -0.3826834323650897
      vertex 24.5 -13.276120467488713 0.3826834323650897
    endloop
  endfacet
  facet normal 1 0 0
    outer loop
      vertex 24.5 -13.33397459621556 0.49999999999999994
      vertex 24.5 -13.33397459621556 -0.49999999999999994
      vertex 24.5 -13.276120467488713 -0.3826834323650897
    endloop
  endfacet
  facet normal 1 0 0
    outer loop
      vertex 24.5 -13.406646659708764 0.6087614290087205
      vertex 24.5 -13.33397459621556 -0.49999999999999994
      vertex 24.5 -13.33397459621556 0.49999999999999994
    endloop
  endfacet
  facet normal 1 0 0
    outer loop
      vertex 24.5 -13.406646659708764 0.6087614290087205
      vertex 24.5 -13.406646659708764 -0.6087614290087205
      vertex 24.5 -13.33397459621556 -0.49999999999999994
    endloop
  endfacet
  facet normal 1 0 0
    outer loop
      vertex 24.5 -13.492893218813451 0.7071067811865475
      vertex 24.5 -13.406646659708764 -0.6087614290087205
      vertex 24.5 -13.406646659708764 0.6087614290087205
    endloop
  endfacet
  facet normal 1 0 0
    outer loop
      vertex 24.5 -13.492893218813451 0.7071067811865475
      vertex 24.5 -13.492893218813451 -0.7071067811865475
      vertex 24.5 -13.406646659708764 -0.6087614290087205
    endloop
  endfacet
  facet normal 1 0 0
    outer loop
      vertex 24.5 -13.591238570991278 0.793353340291235
      vertex 24.5 -13.492893218813451 -0.7071067811865475
      vertex 24.5 -13.492893218813451 0.7071067811865475
    endloop
  endfacet
  facet normal 1 0 0
    outer loop
      vertex 24.5 -13.591238570991278 0.793353340291235
      vertex 24.5 -13.591238570991278 -0.793353340291235
      vertex 24.5 -13.492893218813451 -0.7071067811865475
    endloop
  endfacet
  facet normal 1 0 0
    outer loop
      vertex 24.5 -13.7 0.8660254037844385
      vertex 24.5 -13.591238570991278 -0.793353340291235
      vertex 24.5 -13.591238570991278 0.793353340291235
    endloop
  endfacet
  facet normal 1 0 0
    outer loop
      vertex 24.5 -13.7 0.8660254037844385
      vertex 24.5 -13.7 -0.8660254037844385
      vertex 24.5 -13.591238570991278 -0.793353340291235
    endloop
  endfacet
  facet normal 1 0 0
    outer loop
      vertex 24.5 -13.81731656763491 0.9238795325112866
      vertex 24.5 -13.7 -0.8660254037844385
      vertex 24.5 -13.7 0.8660254037844385
    endloop
  endfacet
  facet normal 1 0 0
    outer loop
      vertex 24.5 -13.81731656763491 0.9238795325112866
      vertex 24.5 -13.81731656763491 -0.9238795325112866
      vertex 24.5 -13.7 -0.8660254037844385
    endloop
  endfacet
  facet normal 1 0 0
    outer loop
      vertex 24.5 -13.94118095489748 0.9659258262890682
      vertex 24.5 -13.81731656763491 -0.9238795325112866
      vertex 24.5 -13.81731656763491 0.9238795325112866
    endloop
  endfacet
  facet normal 1 0 0
    outer loop
      vertex 24.5 -13.94118095489748 0.9659258262890682
      vertex 24.5 -13.94118095489748 -0.9659258262890682
      vertex 24.5 -13.81731656763491 -0.9238795325112866
    endloop
  endfacet
  facet normal 1 0 0
    outer loop
      vertex 24.5 -14.069473807779948 0.9914448613738103
      vertex 24.5 -13.94118095489748 -0.9659258262890682
      vertex 24.5 -13.94118095489748 0.9659258262890682
    endloop
  endfacet
  facet normal 1 0 0
    outer loop
      vertex 24.5 -14.069473807779948 0.9914448613738103
      vertex 24.5 -14.069473807779948 -0.9914448613738103
      vertex 24.5 -13.94118095489748 -0.9659258262890682
    endloop
  endfacet
  facet normal 1 0 0
    outer loop
      vertex 24.5 -14.2 0.9999999999999999
      vertex 24.5 -14.069473807779948 -0.9914448613738103
      vertex 24.5 -14.069473807779948 0.9914448613738103
    endloop
  endfacet
  facet normal 1 0 0
    outer loop
      vertex 24.5 -14.2 0.9999999999999999
      vertex 24.5 -14.2 -0.9999999999999999
      vertex 24.5 -14.069473807779948 -0.9914448613738103
    endloop
  endfacet
  facet normal 1 0 0
    outer loop
      vertex 24.5 -14.33052619222005 0.9914448613738103
      vertex 24.5 -14.2 -0.9999999999999999
      vertex 24.5 -14.2 0.9999999999999999
    endloop
  endfacet
  facet normal 1 0 0
    outer loop
      vertex 24.5 -14.33052619222005 0.9914448613738103
      vertex 24.5 -14.33052619222005 -0.9914448613738103
      vertex 24.5 -14.2 -0.9999999999999999
    endloop
  endfacet
  facet normal 1 0 0
    outer loop
      vertex 24.5 -14.45881904510252 0.9659258262890682
      vertex 24.5 -14.33052619222005 -0.9914448613738103
      vertex 24.5 -14.33052619222005 0.9914448613738103
    endloop
  endfacet
  facet normal 1 0 0
    outer loop
      vertex 24.5 -14.45881904510252 0.9659258262890682
      vertex 24.5 -14.45881904510252 -0.9659258262890682
      vertex 24.5 -14.33052619222005 -0.9914448613738103
    endloop
  endfacet
  facet normal 1 0 0
    outer loop
      vertex 24.5 -14.582683432365089 0.9238795325112866
      vertex 24.5 -14.45881904510252 -0.9659258262890682
      vertex 24.5 -14.45881904510252 0.9659258262890682
    endloop
  endfacet
  facet normal 1 0 0
    outer loop
      vertex 24.5 -14.582683432365089 0.9238795325112866
      vertex 24.5 -14.582683432365089 -0.9238795325112866
      vertex 24.5 -14.45881904510252 -0.9659258262890682
    endloop
  endfacet
  facet normal 1 0 0
    outer loop
      vertex 24.5 -14.7 0.8660254037844385
      vertex 24.5 -14.582683432365089 -0.9238795325112866
      vertex 24.5 -14.582683432365089 0.9238795325112866
    endloop
  endfacet
  facet normal 1 0 0
    outer loop
      vertex 24.5 -14.7 0.8660254037844385
      vertex 24.5 -14.7 -0.8660254037844385
      vertex 24.5 -14.582683432365089 -0.9238795325112866
    endloop
  endfacet
  facet normal 1 0 0
    outer loop
      vertex 24.5 -14.80876142900872 0.793353340291235
      vertex 24.5 -14.7 -0.8660254037844385
      vertex 24.5 -14.7 0.8660254037844385
    endloop
  endfacet
  facet normal 1 0 0
    outer loop
      vertex 24.5 -14.80876142900872 0.793353340291235
      vertex 24.5 -14.80876142900872 -0.793353340291235
      vertex 24.5 -14.7 -0.8660254037844385
    endloop
  endfacet
  facet normal 1 0 0
    outer loop
      vertex 24.5 -14.907106781186547 0.7071067811865475
      vertex 24.5 -14.80876142900872 -0.793353340291235
      vertex 24.5 -14.80876142900872 0.793353340291235
    endloop
  endfacet
  facet normal 1 0 0
    outer loop
      vertex 24.5 -14.907106781186547 0.7071067811865475
      vertex 24.5 -14.907106781186547 -0.7071067811865475
      vertex 24.5 -14.80876142900872 -0.793353340291235
    endloop
  endfacet
  facet normal 1 0 0
    outer loop
      vertex 24.5 -14.993353340291234 0.6087614290087205
      vertex 24.5 -14.907106781186547 -0.7071067811865475
      vertex 24.5 -14.907106781186547 0.7071067811865475
    endloop
  endfacet
  facet normal 1 0 0
    outer loop
      vertex 24.5 -14.993353340291234 0.6087614290087205
      vertex 24.5 -14.993353340291234 -0.6087614290087205
      vertex 24.5 -14.907106781186547 -0.7071067811865475
    endloop
  endfacet
  facet normal 1 0 0
    outer loop
      vertex 24.5 -15.066025403784439 0.49999999999999994
      vertex 24.5 -14.993353340291234 -0.6087614290087205
      vertex 24.5 -14.993353340291234 0.6087614290087205
    endloop
  endfacet
  facet normal 1 0 0
    outer loop
      vertex 24.5 -15.066025403784439 0.49999999999999994
      vertex 24.5 -15.066025403784439 -0.49999999999999994
      vertex 24.5 -14.993353340291234 -0.6087614290087205
    endloop
  endfacet
  facet normal 1 0 0
    outer loop
      vertex 24.5 -15.123879532511285 0.3826834323650897
      vertex 24.5 -15.066025403784439 -0.49999999999999994
      vertex 24.5 -15.066025403784439 0.49999999999999994
    endloop
  endfacet
  facet normal 1 0 0
    outer loop
      vertex 24.5 -15.123879532511285 0.3826834323650897
      vertex 24.5 -15.123879532511285 -0.3826834323650897
      vertex 24.5 -15.066025403784439 -0.49999999999999994
    endloop
  endfacet
  facet normal 1 0 0
    outer loop
      vertex 24.5 -15.165925826289067 0.2588190451025207
      vertex 24.5 -15.123879532511285 -0.3826834323650897
      vertex 24.5 -15.123879532511285 0.3826834323650897
    endloop
  endfacet
  facet normal 1 0 0
    outer loop
      vertex 24.5 -15.165925826289067 0.2588190451025207
      vertex 24.5 -15.165925826289067 -0.2588190451025207
      vertex 24.5 -15.123879532511285 -0.3826834323650897
    endloop
  endfacet
  facet normal 1 0 0
    outer loop
      vertex 24.5 -15.19144486137381 0.13052619222005155
      vertex 24.5 -15.165925826289067 -0.2588190451025207
      vertex 24.5 -15.165925826289067 0.2588190451025207
    endloop
  endfacet
  facet normal 1 0 0
    outer loop
      vertex 24.5 -15.19144486137381 0.13052619222005155
      vertex 24.5 -15.19144486137381 -0.13052619222005155
      vertex 24.5 -15.165925826289067 -0.2588190451025207
    endloop
  endfacet
  facet normal 1 0 0
    outer loop
      vertex 24.5 -15.19144486137381 -0.13052619222005155
      vertex 24.5 -15.19144486137381 0.13052619222005155
      vertex 24.5 -15.2 0
    endloop
  endfacet
endsolid OpenSCAD_Model
